<?xml version="1.0" encoding="utf-8"?>
<?xml-stylesheet type="text/xsl" href="rss1.xsl"?>
<rss version="2.0" xmlns:atom="http://www.w3.org/2005/Atom" xmlns:content="http://purl.org/rss/1.0/modules/content/" xmlns:dc="http://purl.org/dc/elements/1.1/" xmlns:media="http://search.yahoo.com/mrss/">
<channel>
 <title>Getty</title>
 <link>http://www.gettyimg.com/</link>
 <atom:link href="http://www.gettyimg.com/" rel="self" type="application/rss+xml" />

 
                <item>
                <title><![CDATA[【PRORES SD】Avril Lavigne - Complicated (Master ProRes) SD]]></title>
                <link><![CDATA[https://sharemania.us/threads/avril-lavigne-complicated-master-prores-sd.236984/]]></link>
                <description><![CDATA[<article>
<blockquote class="messageText SelectQuoteContainer ugc baseHtml">
<img src="https://i.imgur.com/miytQ45.jpeg" class="bbCodeImage LbImage" alt="[​IMG]" data-url="https://i.imgur.com/miytQ45.jpeg" style=""> <img src="https://i.imgur.com/nJfakuE.jpeg" class="bbCodeImage LbImage" alt="[​IMG]" data-url="https://i.imgur.com/nJfakuE.jpeg" style=""> <img src="https://i.imgur.com/wzRZ4Ba.jpeg" class="bbCodeImage LbImage" alt="[​IMG]" data-url="https://i.imgur.com/wzRZ4Ba.jpeg" style=""> <img src="https://i.imgur.com/L5s3kpy.jpeg" class="bbCodeImage LbImage" alt="[​IMG]" data-url="https://i.imgur.com/L5s3kpy.jpeg" style=""> <br>
<br>
<div class="ToggleTriggerAnchor bbCodeSpoilerContainer">
<button type="button" class="button bbCodeSpoilerButton ToggleTrigger Tooltip JsOnly" data-target="> .SpoilerTarget"><span>Spoiler: <span class="SpoilerTitle">MediaInfo</span></span></button>
<div class="SpoilerTarget bbCodeSpoilerText">General<br>
Complete name : C:\Users\joshuasantiago\Downloads\Avril Lavigne - Complicated (Master ProRes) SD.mov<br>
Format : MPEG-4<br>
Format profile : QuickTime<br>
Codec ID : qt 0000.02 (qt )<br>
File size : 1.64 GiB<br>
Duration : 4 min 21 s<br>
Overall bit rate mode : Variable<br>
Overall bit rate : 54.0 Mb/s<br>
Frame rate : 25.000 FPS<br>
<br>
Video<br>
ID : 1<br>
Format : ProRes<br>
Format version : Version 0<br>
Format profile : 422 HQ<br>
Codec ID : apch<br>
Duration : 4 min 20 s<br>
Bit rate mode : Variable<br>
Bit rate : 51.8 Mb/s<br>
Width : 720 pixels<br>
Height : 576 pixels<br>
Display aspect ratio : 4:3<br>
Frame rate mode : Constant<br>
Frame rate : 25.000 FPS<br>
Standard : PAL<br>
Color space : YUV<br>
Chroma subsampling : 4:2:2<br>
Scan type : Interlaced<br>
Original scan type : Progressive<br>
Scan type, store method : Interleaved fields<br>
Scan order : Top Field First<br>
Bits/(Pixel*Frame) : 4.992<br>
Stream size : 1.57 GiB (96%)<br>
Writing library : Apple<br>
Color primaries : BT.601 PAL<br>
Transfer characteristics : BT.470 System B/G<br>
Matrix coefficients : BT.470 System B/G<br>
matrix_coefficients_Original : BT.709<br>
<br>
Audio<br>
ID : 2<br>
Format : PCM<br>
Format settings : Little / Signed<br>
Codec ID : in24<br>
Duration : 4 min 21 s<br>
Source duration : 4 min 21 s<br>
Bit rate mode : Constant<br>
Bit rate : 2 304 kb/s<br>
Channel(s) : 2 channels<br>
Channel layout : L R<br>
Sampling rate : 48.0 kHz<br>
Bit depth : 24 bits<br>
Stream size : 71.7 MiB (4%)<br>
Source stream size : 71.7 MiB (4%)<br>
Default : Yes<br>
Alternate group : 1<br>
mdhd_Duration : 261056</div>
</div><br>
<div class="bbCodeBlock bbCodeVfcHH HiddenContent">
<div class="attribution type">Hidden Content:</div>
<blockquote>You must reply before you can see the hidden data contained here.</blockquote>
</div>
<div class="messageTextEndMarker">&nbsp;</div>
</blockquote>
</article>]]></description>
                <author><![CDATA[Avril1255]]></author>
                </item>

                
                <item>
                <title><![CDATA[【MASTER &amp; MASTER RIP】delete please]]></title>
                <link><![CDATA[https://sharemania.us/threads/delete-please.236983/]]></link>
                <description><![CDATA[<article>
<blockquote class="messageText SelectQuoteContainer ugc baseHtml">
delete
<div class="messageTextEndMarker">&nbsp;</div>
</blockquote>
</article>]]></description>
                <author><![CDATA[Avril1255]]></author>
                </item>

                </channel></rss>